HIERARCHY
ROOT reference
{
  OFFSET 0 0 0
  CHANNELS 6 Xposition Yposition Zposition Zrotation Xrotation Yrotation
  JOINT Hips
  {
    OFFSET 339.145 90.8604 236.464
    CHANNELS 3 Zrotation Xrotation Yrotation
    JOINT RightUpLeg
    {
      OFFSET -9.24113 -1.522 -0.0337757
      CHANNELS 3 Zrotation Xrotation Yrotation
      JOINT RightLeg
      {
        OFFSET 0.0344394 -41.8985 0.100154
        CHANNELS 3 Zrotation Xrotation Yrotation
        JOINT RightFoot
        {
          OFFSET -0.415571 -42.0751 0.023027
          CHANNELS 3 Zrotation Xrotation Yrotation
          End Site
          {
            OFFSET 0 -7.69 17.5
          }
        }
      }
    }
    JOINT LeftUpLeg
    {
      OFFSET 9.30897 -1.67379 -0.0291548
      CHANNELS 3 Zrotation Xrotation Yrotation
      JOINT LeftLeg
      {
        OFFSET 0.0832755 -41.864 -0.14338
        CHANNELS 3 Zrotation Xrotation Yrotation
        JOINT LeftFoot
        {
          OFFSET 0.17151 -41.5225 0.735469
          CHANNELS 3 Zrotation Xrotation Yrotation
          End Site
          {
            OFFSET 0 -7.69 17.5
          }
        }
      }
    }
    JOINT Spine
    {
      OFFSET 0.00853273 14.2903 0.0777264
      CHANNELS 3 Zrotation Xrotation Yrotation
      JOINT Spine1
      {
        OFFSET 0.0173944 9.71323 0.029081
        CHANNELS 3 Zrotation Xrotation Yrotation
        JOINT Spine2
        {
          OFFSET 0.0412483 10.1247 -0.0145163
          CHANNELS 3 Zrotation Xrotation Yrotation
          JOINT Spine3
          {
            OFFSET 0.0279063 9.71793 0.00755232
            CHANNELS 3 Zrotation Xrotation Yrotation
            JOINT Neck
            {
              OFFSET 0.0852486 10.3712 0.0268485
              CHANNELS 3 Zrotation Xrotation Yrotation
              JOINT Head
              {
                OFFSET 0.0739267 9.48251 0.0332551
                CHANNELS 3 Zrotation Xrotation Yrotation
                End Site
                {
                  OFFSET 0 15.95 0
                }
              }
            }
            JOINT RightShoulder
            {
              OFFSET -3.14957 6.95772 0.0300988
              CHANNELS 3 Zrotation Xrotation Yrotation
              JOINT RightArm
              {
                OFFSET -12.7513 0.0411148 0.0791701
                CHANNELS 3 Zrotation Xrotation Yrotation
                JOINT RightForeArm
                {
                  OFFSET -26.4959 0.0361336 0.259434
                  CHANNELS 3 Zrotation Xrotation Yrotation
                  JOINT RightHand
                  {
                    OFFSET -25.9829 -0.0837334 0.191464
                    CHANNELS 3 Zrotation Xrotation Yrotation
                    JOINT RightHandThumb1
                    {
                      OFFSET -2.48905 0.190105 3.12053
                      CHANNELS 3 Zrotation Xrotation Yrotation
                      JOINT RightHandThumb2
                      {
                        OFFSET -3.68274 0 0
                        CHANNELS 3 Zrotation Xrotation Yrotation
                        JOINT RightHandThumb3
                        {
                          OFFSET -2.55832 0 0
                          CHANNELS 3 Zrotation Xrotation Yrotation
                          End Site
                          {
                            OFFSET -2.194 0 0
                          }
                        }
                      }
                    }
                    JOINT RightInHandIndex
                    {
                      OFFSET -3.22368 0.508421 1.97842
                      CHANNELS 3 Zrotation Xrotation Yrotation
                      JOINT RightHandIndex1
                      {
                        OFFSET -5.21684 -0.091368 0.999158
                        CHANNELS 3 Zrotation Xrotation Yrotation
                        JOINT RightHandIndex2
                        {
                          OFFSET -3.61937 0 0
                          CHANNELS 3 Zrotation Xrotation Yrotation
                          JOINT RightHandIndex3
                          {
                            OFFSET -2.0521 0 0
                            CHANNELS 3 Zrotation Xrotation Yrotation
                            End Site
                            {
                              OFFSET -1.805 0 0
                            }
                          }
                        }
                      }
                    }
                    JOINT RightInHandMiddle
                    {
                      OFFSET -3.38211 0.517263 0.756737
                      CHANNELS 3 Zrotation Xrotation Yrotation
                      JOINT RightHandMiddle1
                      {
                        OFFSET -5.17411 -0.084 0.313895
                        CHANNELS 3 Zrotation Xrotation Yrotation
                        JOINT RightHandMiddle2
                        {
                          OFFSET -3.94947 0 0
                          CHANNELS 3 Zrotation Xrotation Yrotation
                          JOINT RightHandMiddle3
                          {
                            OFFSET -2.47579 0 0
                            CHANNELS 3 Zrotation Xrotation Yrotation
                            End Site
                            {
                              OFFSET -1.975 0 0
                            }
                          }
                        }
                      }
                    }
                    JOINT RightInHandRing
                    {
                      OFFSET -3.36516 0.537895 -0.128947
                      CHANNELS 3 Zrotation Xrotation Yrotation
                      JOINT RightHandRing1
                      {
                        OFFSET -4.63474 -0.022105 -0.478947
                        CHANNELS 3 Zrotation Xrotation Yrotation
                        JOINT RightHandRing2
                        {
                          OFFSET -3.44238 0 0
                          CHANNELS 3 Zrotation Xrotation Yrotation
                          JOINT RightHandRing3
                          {
                            OFFSET -2.3881 0 0
                            CHANNELS 3 Zrotation Xrotation Yrotation
                            End Site
                            {
                              OFFSET -1.857 0 0
                            }
                          }
                        }
                      }
                    }
                    JOINT RightInHandPinky
                    {
                      OFFSET -3.16105 0.469368 -1.20179
                      CHANNELS 3 Zrotation Xrotation Yrotation
                      JOINT RightHandPinky1
                      {
                        OFFSET -4.14105 -0.022105 -1.09053
                        CHANNELS 3 Zrotation Xrotation Yrotation
                        JOINT RightHandPinky2
                        {
                          OFFSET -2.75653 0 0
                          CHANNELS 3 Zrotation Xrotation Yrotation
                          JOINT RightHandPinky3
                          {
                            OFFSET -1.74189 0 0
                            CHANNELS 3 Zrotation Xrotation Yrotation
                            End Site
                            {
                              OFFSET -1.645 0 0
                            }
                          }
                        }
                      }
                    }
                  }
                }
              }
            }
            JOINT LeftShoulder
            {
              OFFSET 3.25273 6.91522 -0.0295735
              CHANNELS 3 Zrotation Xrotation Yrotation
              JOINT LeftArm
              {
                OFFSET 12.7785 0.0134102 -0.0213482
                CHANNELS 3 Zrotation Xrotation Yrotation
                JOINT LeftForeArm
                {
                  OFFSET 26.5044 -0.0446277 0.0404034
                  CHANNELS 3 Zrotation Xrotation Yrotation
                  JOINT LeftHand
                  {
                    OFFSET 25.9955 -0.0467726 -0.0166804
                    CHANNELS 3 Zrotation Xrotation Yrotation
                    JOINT LeftHandThumb1
                    {
                      OFFSET 2.48905 0.190105 3.12053
                      CHANNELS 3 Zrotation Xrotation Yrotation
                      JOINT LeftHandThumb2
                      {
                        OFFSET 3.68274 0 0
                        CHANNELS 3 Zrotation Xrotation Yrotation
                        JOINT LeftHandThumb3
                        {
                          OFFSET 2.55832 0 0
                          CHANNELS 3 Zrotation Xrotation Yrotation
                          End Site
                          {
                            OFFSET 2.194 0 0
                          }
                        }
                      }
                    }
                    JOINT LeftInHandIndex
                    {
                      OFFSET 3.22368 0.508421 1.97842
                      CHANNELS 3 Zrotation Xrotation Yrotation
                      JOINT LeftHandIndex1
                      {
                        OFFSET 5.21684 -0.091368 0.999158
                        CHANNELS 3 Zrotation Xrotation Yrotation
                        JOINT LeftHandIndex2
                        {
                          OFFSET 3.61937 0 0
                          CHANNELS 3 Zrotation Xrotation Yrotation
                          JOINT LeftHandIndex3
                          {
                            OFFSET 2.0521 0 0
                            CHANNELS 3 Zrotation Xrotation Yrotation
                            End Site
                            {
                              OFFSET 1.805 0 0
                            }
                          }
                        }
                      }
                    }
                    JOINT LeftInHandMiddle
                    {
                      OFFSET 3.38211 0.517263 0.756737
                      CHANNELS 3 Zrotation Xrotation Yrotation
                      JOINT LeftHandMiddle1
                      {
                        OFFSET 5.17411 -0.084 0.313895
                        CHANNELS 3 Zrotation Xrotation Yrotation
                        JOINT LeftHandMiddle2
                        {
                          OFFSET 3.94947 0 0
                          CHANNELS 3 Zrotation Xrotation Yrotation
                          JOINT LeftHandMiddle3
                          {
                            OFFSET 2.47579 0 0
                            CHANNELS 3 Zrotation Xrotation Yrotation
                            End Site
                            {
                              OFFSET 1.975 0 0
                            }
                          }
                        }
                      }
                    }
                    JOINT LeftInHandRing
                    {
                      OFFSET 3.36516 0.537895 -0.128947
                      CHANNELS 3 Zrotation Xrotation Yrotation
                      JOINT LeftHandRing1
                      {
                        OFFSET 4.63474 -0.022105 -0.478947
                        CHANNELS 3 Zrotation Xrotation Yrotation
                        JOINT LeftHandRing2
                        {
                          OFFSET 3.44238 0 0
                          CHANNELS 3 Zrotation Xrotation Yrotation
                          JOINT LeftHandRing3
                          {
                            OFFSET 2.3881 0 0
                            CHANNELS 3 Zrotation Xrotation Yrotation
                            End Site
                            {
                              OFFSET 1.857 0 0
                            }
                          }
                        }
                      }
                    }
                    JOINT LeftInHandPinky
                    {
                      OFFSET 3.16105 0.469368 -1.20179
                      CHANNELS 3 Zrotation Xrotation Yrotation
                      JOINT LeftHandPinky1
                      {
                        OFFSET 4.14105 -0.022105 -1.09053
                        CHANNELS 3 Zrotation Xrotation Yrotation
                        JOINT LeftHandPinky2
                        {
                          OFFSET 2.75653 0 0
                          CHANNELS 3 Zrotation Xrotation Yrotation
                          JOINT LeftHandPinky3
                          {
                            OFFSET 1.74189 0 0
                            CHANNELS 3 Zrotation Xrotation Yrotation
                            End Site
                            {
                              OFFSET 1.645 0 0
                            }
                          }
                        }
                      }
                    }
                  }
                }
              }
            }
          }
        }
      }
    }
  }
}
MOTION
Frames: 2
Frame Time: 0.00833333
9.000000000000000000e+02 0.000000000000000000e+00 0.000000000000000000e+00 0.000000000000000000e+00 0.000000000000000000e+00 0.000000000000000000e+00 5.676443013983503150e+00 -1.972426763558933871e+00 -5.120338889335151578e+01 1.423391305342124014e+01 -1.334520566181625156e+01 1.064554764923805230e+01 -1.365759598017327159e+00 3.098624958418780384e+00 5.171672184001295136e+00 4.518952296980814687e+00 -1.051179409820798227e+01 7.464940263232882067e+00 1.717234636356981881e+01 -8.049811612295897367e-01 1.429408753845786251e+01 -1.207893665869100452e+01 8.397262392844817569e+00 1.599220380622859849e+01 6.237564821315130237e-01 -1.563755946093092319e+00 1.882014715589209430e+01 6.336300393629432648e-01 -1.423775946924644709e+00 -2.134239648999238526e+01 1.245836323881982649e-01 -2.317164106965229065e-01 -5.315434041484659922e+00 1.497872604989136103e-01 -2.514505763271980832e-01 -7.990553537489857305e+00 -3.991458247737149634e-01 4.082168305557030974e-02 1.910438644167034683e+00 -1.174738894592711524e+00 -1.225113786743382116e+00 3.095611351740988226e+01 -6.403503056348220035e+00 2.407887521521213436e+00 1.835530482317500756e+01 4.541429804080701516e+00 6.964876075587527637e+00 -1.230802736731152081e+01 -2.527490802769828404e-01 -3.398834822627255647e+01 -3.261885439441756063e+01 2.312406808204652009e+01 6.063948413269053539e+00 2.551950036304804215e+01 -6.705244089035939048e+00 -7.359841006755180715e+00 9.033200005339210747e+00 0.000000000000000000e+00 0.000000000000000000e+00 0.000000000000000000e+00 -1.797401850175905422e-16 -1.400898387701753927e-16 0.000000000000000000e+00 -1.238194806533144891e-15 4.578859958086387947e-16 0.000000000000000000e+00 -1.177128263134900428e-16 -2.265082370026092250e-16 -1.362131912288836095e-15 0.000000000000000000e+00 0.000000000000000000e+00 0.000000000000000000e+00 0.000000000000000000e+00 -1.236646848745393707e-15 -9.945843177649540153e-16 0.000000000000000000e+00 -1.908104127270901905e-16 -2.189210052013154808e-15 -1.177128263134900428e-16 -2.265082370026092250e-16 -1.362131912288836095e-15 0.000000000000000000e+00 5.643296030928565943e-16 2.586299748189136053e-16 0.000000000000000000e+00 -8.155801079117424116e-16 -1.643024930969120082e-15 0.000000000000000000e+00 -2.084694144233935994e-15 -5.156319350037330729e-15 -1.177128263134900428e-16 -2.265082370026092250e-16 -1.362131912288836095e-15 0.000000000000000000e+00 0.000000000000000000e+00 0.000000000000000000e+00 0.000000000000000000e+00 -4.838621686502218567e-15 -2.443141731708705557e-14 0.000000000000000000e+00 -2.625016039489967630e-15 -4.023044338204868911e-15 -1.177128263134900428e-16 -2.265082370026092250e-16 -1.362131912288836095e-15 0.000000000000000000e+00 0.000000000000000000e+00 0.000000000000000000e+00 0.000000000000000000e+00 -4.127510193338533756e-16 -5.311802781699480464e-15 0.000000000000000000e+00 9.810449519319810583e-16 -4.122430618382328007e-15 7.247441110271153342e+00 -6.147690985215898962e+00 -1.171130581530486303e+01 1.737715764022008358e+01 1.299322983346604410e+01 -2.553359599775326672e+01 1.863239105217054359e+01 1.413471755172786359e+01 3.379536892157985051e+01 -3.872653658680433431e+00 1.352152315566230723e+00 1.707469890908734911e+00 0.000000000000000000e+00 0.000000000000000000e+00 0.000000000000000000e+00 -2.650097953483418246e-15 5.016714345158162697e-16 0.000000000000000000e+00 -3.856523408562755163e-16 -4.359665900898446355e-16 0.000000000000000000e+00 -1.150603103692262318e-15 -1.018736759967726374e-15 3.868924945425207329e-16 0.000000000000000000e+00 0.000000000000000000e+00 0.000000000000000000e+00 0.000000000000000000e+00 -4.765582818726117343e-17 1.292711024584470150e-15 0.000000000000000000e+00 5.548815978239730096e-16 -7.307860867596519726e-16 -1.150603103692262318e-15 -1.018736759967726374e-15 3.868924945425207329e-16 0.000000000000000000e+00 -2.809403646315145110e-16 2.147650388321079197e-15 0.000000000000000000e+00 -9.334920358658387533e-17 1.913310848762631998e-15 0.000000000000000000e+00 3.420778662381528659e-15 2.022210178956899229e-15 -1.150603103692262318e-15 -1.018736759967726374e-15 3.868924945425207329e-16 0.000000000000000000e+00 0.000000000000000000e+00 0.000000000000000000e+00 0.000000000000000000e+00 -1.519985195129204324e-15 2.308490881871912109e-15 0.000000000000000000e+00 2.321249001860960035e-16 2.277305579628841662e-15 -1.150603103692262318e-15 -1.018736759967726374e-15 3.868924945425207329e-16 0.000000000000000000e+00 0.000000000000000000e+00 0.000000000000000000e+00 0.000000000000000000e+00 1.323837232133880519e-15 3.564162266535331091e-15 0.000000000000000000e+00 -1.379741468293140026e-15 -9.807104765760466921e-16
9.000000000000000000e+02 0.000000000000000000e+00 0.000000000000000000e+00 0.000000000000000000e+00 0.000000000000000000e+00 0.000000000000000000e+00 5.694728511856409270e+00 -1.873586454574952986e+00 -5.084514033976344649e+01 1.380962577961883397e+01 -1.342703795296389302e+01 1.025997995065736568e+01 -1.315233095098215843e+00 3.160204986771067759e+00 5.037755152051950347e+00 4.673977482132677608e+00 -1.081207364535926985e+01 7.048217746481560297e+00 1.693388453807094152e+01 -1.056026338075603199e+00 1.404460857026781540e+01 -1.185413767611169078e+01 8.335885489752360655e+00 1.580845405338382470e+01 5.822540139823300098e-01 -1.494147572772883903e+00 1.867954463968290568e+01 7.184329149558673633e-01 -1.239801604508456112e+00 -2.140723271941977757e+01 1.485049486842775490e-01 -1.823884768425182157e-01 -5.330283161629917110e+00 1.877167175652645348e-01 -1.706997985106186722e-01 -8.004457621590319150e+00 -3.959025451234606252e-01 5.095332084795869271e-02 1.889413388711175257e+00 -1.165457731837268529e+00 -1.136724958394655260e+00 3.082107021897054722e+01 -6.342921011028794354e+00 2.403297254228499824e+00 1.804323753098749705e+01 4.551123090488291112e+00 6.854437759468910762e+00 -1.222047222825795387e+01 7.049385579892963882e-02 -3.364558161401768643e+01 -3.257524334774166164e+01 2.322665406635734442e+01 5.934464022968136021e+00 2.454712874474310880e+01 -6.856777294768440889e+00 -7.491406506830836420e+00 8.957299622647889592e+00 0.000000000000000000e+00 0.000000000000000000e+00 0.000000000000000000e+00 -2.236756007833253907e-16 -1.353455128003902354e-16 0.000000000000000000e+00 -1.280253043129185687e-15 5.157126561847468728e-16 0.000000000000000000e+00 -1.760223412183728615e-16 -2.416922622930660820e-16 -1.358691594685010310e-15 0.000000000000000000e+00 0.000000000000000000e+00 0.000000000000000000e+00 0.000000000000000000e+00 -1.203239297138454725e-15 -9.338427372848420385e-16 0.000000000000000000e+00 -1.850781690392648921e-16 -2.215288603489493878e-15 -1.760223412183728615e-16 -2.416922622930660820e-16 -1.358691594685010310e-15 0.000000000000000000e+00 5.630375089990977493e-16 3.700778758940414341e-16 0.000000000000000000e+00 -8.234978870207867768e-16 -1.699466318703852086e-15 0.000000000000000000e+00 -2.058704445328115742e-15 -5.158355431498982154e-15 -1.760223412183728615e-16 -2.416922622930660820e-16 -1.358691594685010310e-15 0.000000000000000000e+00 0.000000000000000000e+00 0.000000000000000000e+00 0.000000000000000000e+00 -4.940226868439592880e-15 -2.523041907204404160e-14 0.000000000000000000e+00 -2.562564098773402568e-15 -3.884303191551223032e-15 -1.760223412183728615e-16 -2.416922622930660820e-16 -1.358691594685010310e-15 0.000000000000000000e+00 0.000000000000000000e+00 0.000000000000000000e+00 0.000000000000000000e+00 -4.479983209758665845e-16 -5.227294478880969022e-15 0.000000000000000000e+00 9.315247188701619917e-16 -4.136838636121584918e-15 7.376165619853668254e+00 -6.126893469282570948e+00 -1.156259276539313241e+01 1.731101638690630296e+01 1.325693570602925675e+01 -2.538952109108815947e+01 1.793592726864623899e+01 1.367284986857940865e+01 3.408910419660394808e+01 -3.973527357334941001e+00 1.274327741596532615e+00 1.770172710971152474e+00 0.000000000000000000e+00 0.000000000000000000e+00 0.000000000000000000e+00 -2.706893997473816683e-15 5.105850246571983127e-16 0.000000000000000000e+00 -4.096458736375917721e-16 -4.281558894451400785e-16 0.000000000000000000e+00 -1.135924803075970865e-15 -1.015381237807188864e-15 3.755163045758082026e-16 0.000000000000000000e+00 0.000000000000000000e+00 0.000000000000000000e+00 0.000000000000000000e+00 4.854352972022530441e-17 1.031938159095978317e-15 0.000000000000000000e+00 5.495087105989132225e-16 -9.291766387648403052e-16 -1.135924803075970865e-15 -1.015381237807188864e-15 3.755163045758082026e-16 0.000000000000000000e+00 -2.248013770663807352e-16 2.026850048092813766e-15 0.000000000000000000e+00 -1.131375425796711049e-16 1.669939821130420428e-15 0.000000000000000000e+00 3.394858110447032144e-15 1.803607264036864175e-15 -1.135924803075970865e-15 -1.015381237807188864e-15 3.755163045758082026e-16 0.000000000000000000e+00 0.000000000000000000e+00 0.000000000000000000e+00 0.000000000000000000e+00 -1.521883608045421716e-15 2.113102407454078357e-15 0.000000000000000000e+00 3.082923329553599985e-16 2.078605724170051321e-15 -1.135924803075970865e-15 -1.015381237807188864e-15 3.755163045758082026e-16 0.000000000000000000e+00 0.000000000000000000e+00 0.000000000000000000e+00 0.000000000000000000e+00 1.352945944950315337e-15 3.375503953341762117e-15 0.000000000000000000e+00 -1.328679068139468692e-15 -1.112746242133119206e-15
